<svg width="20" height="20" viewBox="0 0 20 20" fill="none" xmlns="http://www.w3.org/2000/svg">
<path fill-rule="evenodd" clip-rule="evenodd" d="M3 4C1.89543 4 1 4.89543 1 6V15C1 16.1046 1.89543 17 3 17H8.26756C8.61337 17.5978 9.25972 18 10 18C10.7403 18 11.3866 17.5978 11.7324 17H17C18.1046 17 19 16.1046 19 15V6C19 4.89543 18.1046 4 17 4H12C10.8954 4 10 4.89543 10 6C10 4.89543 9.10457 4 8 4H3Z" fill="#3A5FCC"/>
<path d="M10 4C10 2.89543 10.8954 2 12 2H16C17.1046 2 18 2.89543 18 4V15C18 15.5523 17.5523 16 17 16H10V4Z" fill="#EDEFF1"/>
<path d="M2 4C2 2.89543 2.89543 2 4 2H8C9.10457 2 10 2.89543 10 4V16H3C2.44772 16 2 15.5523 2 15V4Z" fill="white"/>
<path d="M8 15H10V17V17C8.89543 17 8 16.1046 8 15V15Z" fill="white"/>
<path d="M10 15H12V15C12 16.1046 11.1046 17 10 17V17V15Z" fill="#EDEFF1"/>
</svg>
