<svg width="20" height="20" viewBox="0 0 20 20" fill="none" xmlns="http://www.w3.org/2000/svg">
    <path fill-rule="evenodd" clip-rule="evenodd" d="M3 3C1.89543 3 1 3.89543 1 5V15C1 16.1046 1.89543 17 3 17H8.26756C8.61337 17.5978 9.25972 18 10 18C10.7403 18 11.3866 17.5978 11.7324 17H17C18.1046 17 19 16.1046 19 15V5C19 3.89543 18.1046 3 17 3H12C10.8954 3 10 3.89543 10 5C10 3.89543 9.10457 3 8 3H3Z" fill="#3A5FCC"/>
    <path d="M10 4C10 2.89543 10.8954 2 12 2H16C17.1046 2 18 2.89543 18 4V14C18 15.1046 17.1046 16 16 16H10V4Z" fill="#EEEEEE"/>
    <path d="M2 4C2 2.89543 2.89543 2 4 2H8C9.10457 2 10 2.89543 10 4V16H4C2.89543 16 2 15.1046 2 14V4Z" fill="white"/>
    <path d="M8 15H10V17C8.89543 17 8 16.1046 8 15Z" fill="white"/>
    <path d="M10 15H12C12 16.1046 11.1046 17 10 17V15Z" fill="#EEEEEE"/>
</svg>
