<svg width="24" height="24" viewBox="0 0 24 24" fill="none" xmlns="http://www.w3.org/2000/svg">
<path fill-rule="evenodd" clip-rule="evenodd" d="M7 1C7 0.447715 6.55228 0 6 0C5.44772 0 5 0.447715 5 1V2C2.23858 2 0 4.23858 0 7V9V19C0 21.7614 2.23858 24 5 24H19C21.7614 24 24 21.7614 24 19V9V7C24 4.23858 21.7614 2 19 2V1C19 0.447715 18.5523 0 18 0C17.4477 0 17 0.447715 17 1V2H7V1ZM5 4V5C5 5.55228 5.44772 6 6 6C6.55228 6 7 5.55228 7 5V4H17V5C17 5.55228 17.4477 6 18 6C18.5523 6 19 5.55228 19 5V4C20.6569 4 22 5.34315 22 7V8H2V7C2 5.34315 3.34315 4 5 4ZM2 10V19C2 20.6569 3.34315 22 5 22H19C20.6569 22 22 20.6569 22 19V10H2Z" fill="#777777"/>
</svg>
