<svg width="118" height="52" viewBox="0 0 118 52" fill="none" xmlns="http://www.w3.org/2000/svg">
<path d="M13.6489 16.3481C12.9778 21.1304 9.83795 26.0038 7.68813 25.5526C5.53831 25.1014 3.9147 20.9419 9.20058 12.3776C12.9997 6.04627 17.5781 5.79007 19.7877 6.7827C21.9973 7.77534 21.0332 12.3776 18.7201 19.5065C16.8041 24.8223 18.2898 27.0866 21.0332 26.455C23.7766 25.8233 28.4228 14.9945 32.7822 13.28M32.7822 13.28C34.6505 8.40702 36.2519 5.88031 41.2288 2M32.7822 13.28L26.1933 33.7644C20.9614 48.6007 6.6057 50.9099 3.50667 49.7368C0.407627 48.5637 0.306848 40.8246 21.0333 33.7644C30.6512 30.618 40.8929 19.5065 53.8572 19.5065C66.8215 19.5065 72.3797 39.0952 80.2844 41C88.1891 42.9048 119.451 19.433 115.687 26.455" stroke="url(#paint0_linear_1339_140)" stroke-width="4" stroke-linecap="round" stroke-linejoin="round"/>
<path d="M41.125 35.2578C37.2227 35.2461 34.832 32.7266 34.8438 28.6953C34.832 24.7695 37.2578 22.1094 40.9844 22.1094C44.3242 22.1094 46.9609 24.2188 46.9609 28.5547V29.5391H38.2656C38.2656 31.4609 39.4023 32.6445 41.1953 32.6562C42.3789 32.6445 43.2227 32.1289 43.5625 31.3672H46.8672C46.375 33.7227 44.2656 35.2461 41.125 35.2578ZM38.2656 27.3594H43.6797C43.668 25.8125 42.6016 24.6992 41.0547 24.7109C39.4609 24.6992 38.3359 25.8945 38.2656 27.3594ZM55.9963 26.0469C55.8439 25.1562 55.0705 24.582 53.9103 24.5703C52.7853 24.582 51.9298 25.1094 51.9416 25.8828C51.9298 26.457 52.3752 26.9023 53.5822 27.1484L55.8556 27.6172C58.3283 28.1328 59.5236 29.2344 59.5353 31.0625C59.5236 33.5703 57.2736 35.2461 53.8869 35.2578C50.4533 35.2461 48.4377 33.7109 48.1447 31.2266H51.6369C51.8009 32.2227 52.6095 32.7383 53.8869 32.75C55.1525 32.7383 55.9963 32.2344 55.9963 31.4141C55.9963 30.7578 55.4572 30.3477 54.2619 30.1016L52.1525 29.6797C49.7267 29.1992 48.4845 27.957 48.4963 26.0703C48.4845 23.6328 50.5822 22.1094 53.8634 22.1094C57.0744 22.1094 59.0666 23.6328 59.2541 26.0469H55.9963ZM67.9613 22.2734V24.875H65.5706V31.0859C65.5589 32.1055 66.0628 32.3516 66.7659 32.375C67.1175 32.375 67.7269 32.3398 68.1488 32.3047V35.0469C67.7738 35.1055 67.1527 35.1758 66.2972 35.1641C63.7894 35.1758 62.0784 34.0508 62.1019 31.5781V24.875H60.3441V22.2734H62.1019V19.2266H65.5706V22.2734H67.9613ZM77.8872 29.5859V22.2734H81.3559V35H78.0278V32.7031H77.8872C77.313 34.1797 75.9419 35.1641 74.02 35.1641C71.477 35.1641 69.7309 33.3594 69.7309 30.3828V22.2734H73.1997V29.7734C73.1997 31.2852 74.0669 32.2227 75.4263 32.2344C76.6919 32.2227 77.8872 31.3203 77.8872 29.5859ZM88.3288 35.2109C85.4225 35.2109 83.1491 32.9023 83.1491 28.6484C83.1491 24.2891 85.5163 22.1094 88.3288 22.1094C90.4616 22.1094 91.4811 23.375 91.9381 24.4062H92.0553V18.0312H95.5241V35H92.1022V32.9609H91.9381C91.4577 34.0156 90.403 35.2109 88.3288 35.2109ZM86.7116 28.625C86.6998 30.875 87.6491 32.4336 89.4069 32.4453C91.1413 32.4336 92.1256 30.9219 92.1256 28.625C92.1256 26.3398 91.153 24.875 89.4069 24.875C87.6373 24.875 86.6998 26.4102 86.7116 28.625ZM99.9422 39.7812C99.2625 39.7695 98.6297 39.7578 98.1844 39.7109V37.0156C98.6297 37.0508 99.157 37.0625 99.5906 37.0625C100.282 37.0625 100.833 36.9922 101.255 35.8906L101.466 35.3516L96.8953 22.2734H100.528L103.2 31.6484H103.341L106.036 22.2734H109.716L104.747 36.4062C104.02 38.457 102.626 39.7695 99.9422 39.7812Z" fill="#1D1D1F"/>
<defs>
<linearGradient id="paint0_linear_1339_140" x1="1.46534" y1="25.619" x2="101.215" y2="25.619" gradientUnits="userSpaceOnUse">
<stop stop-color="#287DE2"/>
<stop offset="1" stop-color="white" stop-opacity="0.1"/>
</linearGradient>
</defs>
</svg>
