<svg width="32" height="36" viewBox="0 0 32 36" fill="none" xmlns="http://www.w3.org/2000/svg">
<path d="M9.59243 11.5654C9.15012 14.7536 7.08077 18.0025 5.66392 17.7017C4.24706 17.4009 3.17701 14.6279 6.66071 8.91838C9.16453 4.69751 12.182 4.52671 13.6382 5.18847C15.0945 5.85023 14.4591 8.91838 12.9346 13.671C11.6719 17.2148 12.6511 18.7244 14.4591 18.3033C16.2672 17.8822 19.3293 10.663 22.2024 9.51998M22.2024 9.51998C23.4337 6.27135 24.4891 4.58687 27.7692 2M22.2024 9.51998L17.8599 23.1762C14.4118 33.0671 4.95053 34.6066 2.90809 33.8245C0.86564 33.0425 1.32032 29.2391 14.4592 23.1762C26.3232 17.7017 30 16.88 30 16.88" stroke="url(#paint0_linear_2021_503)" stroke-width="3" stroke-linecap="round" stroke-linejoin="round"/>
<defs>
<linearGradient id="paint0_linear_2021_503" x1="1.56275" y1="17.746" x2="67.3038" y2="17.746" gradientUnits="userSpaceOnUse">
<stop stop-color="#287DE2"/>
<stop offset="1" stop-color="white" stop-opacity="0.1"/>
</linearGradient>
</defs>
</svg>
