<svg width="22" height="24" viewBox="0 0 22 24" fill="none" xmlns="http://www.w3.org/2000/svg">
<path fill-rule="evenodd" clip-rule="evenodd" d="M5 0C2.23858 0 0 2.23858 0 5V19C0 21.7614 2.23858 24 5 24H17C19.7614 24 22 21.7614 22 19V5C22 2.23858 19.7614 0 17 0H5ZM2 5C2 3.34315 3.34315 2 5 2H17C18.6569 2 20 3.34315 20 5V19C20 20.6569 18.6569 22 17 22H5C3.34315 22 2 20.6569 2 19V5ZM5 7C4.44772 7 4 7.44772 4 8C4 8.55229 4.44772 9 5 9H13C13.5523 9 14 8.55229 14 8C14 7.44772 13.5523 7 13 7H5ZM4 12C4 11.4477 4.44772 11 5 11H17C17.5523 11 18 11.4477 18 12C18 12.5523 17.5523 13 17 13H5C4.44772 13 4 12.5523 4 12ZM5 15C4.44772 15 4 15.4477 4 16C4 16.5523 4.44772 17 5 17H15C15.5523 17 16 16.5523 16 16C16 15.4477 15.5523 15 15 15H5Z" fill="#777777"/>
</svg>
