<svg width="22" height="22" viewBox="0 0 22 22" fill="none" xmlns="http://www.w3.org/2000/svg">
<path fill-rule="evenodd" clip-rule="evenodd" d="M7.99999 5C7.99999 3.34315 9.34314 2 11 2C12.6568 2 14 3.34315 14 5C14 6.65685 12.6568 8 11 8C9.34314 8 7.99999 6.65685 7.99999 5ZM11 0C8.23857 0 5.99999 2.23858 5.99999 5C5.99999 7.76142 8.23857 10 11 10C13.7614 10 16 7.76142 16 5C16 2.23858 13.7614 0 11 0ZM0.757457 21.9701C1.2926 22.1039 1.83487 21.7791 1.96965 21.2445L1.96978 21.244L1.96993 21.2433L1.97234 21.2342C1.97503 21.2241 1.97973 21.2068 1.98653 21.1828C2.00015 21.1347 2.02219 21.0599 2.05358 20.9623C2.11643 20.7667 2.21635 20.4807 2.36057 20.1346C2.65012 19.4397 3.11208 18.5172 3.79999 17.6C5.16351 15.782 7.39285 14 11 14C14.6071 14 16.8365 15.782 18.2 17.6C18.8879 18.5172 19.3499 19.4397 19.6394 20.1346C19.7836 20.4807 19.8836 20.7667 19.9464 20.9623C19.9778 21.0599 19.9998 21.1347 20.0135 21.1828C20.0203 21.2068 20.025 21.2241 20.0276 21.2342L20.0299 21.2425L20.0301 21.2433L20.0303 21.2442L20.0304 21.2446C20.1652 21.7792 20.7074 22.1039 21.2425 21.9701C21.7783 21.8362 22.1041 21.2933 21.9701 20.7575L21 21C21.9701 20.7575 21.97 20.757 21.9699 20.7565L21.9696 20.7553L21.9689 20.7524L21.9668 20.7444L21.9604 20.7199C21.955 20.6997 21.9475 20.6721 21.9377 20.6376C21.9181 20.5684 21.8894 20.4713 21.8505 20.3502C21.7727 20.1083 21.6538 19.7693 21.4856 19.3654C21.1501 18.5603 20.6121 17.4828 19.8 16.4C18.1635 14.218 15.3928 12 11 12C6.60714 12 3.83648 14.218 2.19999 16.4C1.3879 17.4828 0.849868 18.5603 0.514415 19.3654C0.346138 19.7693 0.227301 20.1083 0.149526 20.3502C0.110605 20.4713 0.0818648 20.5684 0.0622798 20.6376C0.0524844 20.6721 0.0449701 20.6997 0.0396097 20.7199L0.0331652 20.7444L0.0311226 20.7524L0.0303907 20.7553L0.0300966 20.7565C0.0299693 20.757 0.0298499 20.7575 0.999992 21L0.0298499 20.7575C-0.104099 21.2933 0.221662 21.8362 0.757457 21.9701ZM1.96993 21.2433C1.96984 21.2437 1.96974 21.2441 1.96965 21.2445L1.9696 21.2447L1.96978 21.244L1.96993 21.2433Z" fill="#777777"/>
</svg>
