<svg width="24" height="24" viewBox="0 0 24 24" fill="none" xmlns="http://www.w3.org/2000/svg">
<path fill-rule="evenodd" clip-rule="evenodd" d="M2 12C2 6.47715 6.47715 2 12 2C17.5228 2 22 6.47715 22 12C22 17.5228 17.5228 22 12 22C6.47715 22 2 17.5228 2 12ZM12 0C5.37258 0 0 5.37258 0 12C0 18.6274 5.37258 24 12 24C18.6274 24 24 18.6274 24 12C24 5.37258 18.6274 0 12 0ZM17.7795 8.62639C18.1255 8.19588 18.0569 7.56644 17.6264 7.22049C17.1959 6.87455 16.5664 6.9431 16.2205 7.37361L10.5313 14.4535L7.74594 11.334C7.37811 10.922 6.74595 10.8862 6.33398 11.2541C5.92201 11.6219 5.88623 12.254 6.25406 12.666L9.82549 16.666C10.0213 16.8853 10.3036 17.0073 10.5974 16.9997C10.8912 16.992 11.1668 16.8555 11.3509 16.6264L17.7795 8.62639Z" fill="#777777"/>
</svg>
